<svg width="13" height="13" viewBox="0 0 13 13" fill="none" xmlns="http://www.w3.org/2000/svg">
<path d="M0.875 0.875L12.125 12.125" stroke="#73503D" stroke-width="1.25" stroke-linecap="round" stroke-linejoin="round"/>
<path d="M5.5626 5.67313C5.35201 5.91157 5.24026 6.22133 5.25011 6.5393C5.25997 6.85727 5.39068 7.15952 5.61563 7.38447C5.84058 7.60942 6.14282 7.74013 6.46079 7.74999C6.77876 7.75984 7.08853 7.64809 7.32697 7.4375" stroke="#73503D" stroke-width="1.25" stroke-linecap="round" stroke-linejoin="round"/>
<path d="M3.60125 3.72563C2.55 4.46251 1.67438 5.51251 0.875 6.50001C2.05563 8.36938 4.17625 10.25 6.5 10.25C7.46875 10.25 8.40188 9.92313 9.24688 9.40626" stroke="#73503D" stroke-width="1.25" stroke-linecap="round" stroke-linejoin="round"/>
<path d="M6.5 2.75C9.005 2.75 10.6881 4.72375 12.125 6.5C11.9191 6.82548 11.6941 7.13853 11.4513 7.4375" stroke="#73503D" stroke-width="1.25" stroke-linecap="round" stroke-linejoin="round"/>
</svg>
